<mxfile host="app.diagrams.net" modified="2024-02-12T19:18:56.384Z" agent="Mozilla/5.0 (Windows NT 10.0; Win64; x64) AppleWebKit/537.36 (KHTML, like Gecko) Chrome/121.0.0.0 Safari/537.36" version="23.1.2" etag="UCwmNI2PmrRv4kfCHxdP" type="github">
  <diagram name="Page-1" id="i6yzM87_Ur53w1Gtb6IZ">
    <mxGraphModel>
      <root>
        <mxCell id="0" />
        <mxCell id="1" parent="0" />
      </root>
    </mxGraphModel>
  </diagram>
</mxfile>
